<svg width="345" height="219" viewBox="0 0 345 219" fill="none" xmlns="http://www.w3.org/2000/svg">
<g clip-path="url(#clip0_202_2)">
<path d="M11.167 147.106H116.136L0 208.308L11.167 147.106Z" fill="#4BB82F"/>
<path d="M345.46 7.62939e-06L334.293 61.202H244.071H229.323L244.071 53.4303L345.46 7.62939e-06Z" fill="#D93333"/>
<path d="M20.1627 107.86H32.9975L35.3939 97.1711H22.0032L20.1627 107.86ZM21.7909 79.1202L13.3671 128.672H25.1887L33.754 79.1202H21.7909ZM49.3981 103.896C49.7757 101.867 50.4364 99.9554 51.3802 98.1621C52.3712 96.3217 53.5982 94.7171 55.0612 93.3486C56.5241 91.98 58.1758 90.9182 60.0163 90.1631C61.8568 89.3608 63.8389 88.9597 65.9625 88.9597C68.0861 89.0069 69.8794 89.4552 71.3424 90.3047C72.8053 91.1069 73.9615 92.216 74.811 93.6317C75.6605 95.0003 76.2032 96.5812 76.4391 98.3745C76.7223 100.121 76.6987 101.961 76.3683 103.896C75.9908 105.925 75.3301 107.86 74.3863 109.701C73.4424 111.494 72.2154 113.075 70.7053 114.443C69.2423 115.812 67.5906 116.897 65.7502 117.7C63.9569 118.455 61.9984 118.809 59.8748 118.761C57.7511 118.761 55.9578 118.36 54.4949 117.558C53.0319 116.709 51.8757 115.576 51.0263 114.16C50.1768 112.744 49.6105 111.164 49.3274 109.417C49.0914 107.624 49.115 105.784 49.3981 103.896ZM36.7979 103.896C36.326 107.435 36.4912 110.81 37.2934 114.019C38.1429 117.18 39.535 119.988 41.4699 122.442C43.4048 124.849 45.8352 126.76 48.7611 128.176C51.7341 129.545 55.1084 130.229 58.8837 130.229C62.7535 130.229 66.3872 129.568 69.7851 128.247C73.1829 126.878 76.2032 124.991 78.8459 122.584C81.5358 120.177 83.7539 117.393 85.5 114.231C87.2461 111.022 88.4023 107.577 88.9686 103.896C89.4405 100.309 89.2517 96.9587 88.4023 93.8441C87.5528 90.7294 86.1371 87.9923 84.155 85.6327C82.2201 83.2259 79.7662 81.3618 76.7931 80.0404C73.82 78.6719 70.4693 77.9876 66.7412 77.9876C62.9658 77.9876 59.3792 78.6483 55.9814 79.9697C52.6308 81.2438 49.6105 83.0607 46.9206 85.4203C44.2778 87.7799 42.0598 90.5406 40.2665 93.7025C38.5204 96.8172 37.3642 100.215 36.7979 103.896Z" fill="#49AC30"/>
<path d="M100.252 79.1202L91.8991 128.672H103.721L112.286 79.1202H100.252ZM113.371 88.9597H115.825C117.241 88.9597 118.445 89.2193 119.436 89.7384C120.427 90.2575 121.134 90.989 121.559 91.9328C121.984 92.8295 122.078 93.9385 121.842 95.2598C121.559 96.6284 120.993 97.7846 120.143 98.7284C119.294 99.6723 118.232 100.404 116.958 100.923C115.731 101.395 114.362 101.631 112.852 101.631H103.791L102.022 111.47H112.144C115.967 111.423 119.365 110.762 122.338 109.488C125.358 108.214 127.812 106.374 129.7 103.967C131.587 101.56 132.767 98.6813 133.239 95.3306C133.758 91.9328 133.381 89.0541 132.107 86.6945C130.832 84.2877 128.85 82.4472 126.16 81.1731C123.518 79.8517 120.356 79.1674 116.675 79.1202H115.215L113.371 88.9597Z" fill="#49AC30"/>
<path d="M185.369 91.7912L188.696 76.0055L151.899 105.26L134.119 131.716L185.369 91.7912ZM154.789 79.1202H143.25L134.119 131.716L147.781 119.682L154.789 79.1202ZM188.696 76.0055L174.892 88.4642L167.955 128.672H179.423L188.696 76.0055Z" fill="#49AC30"/>
<path d="M196.096 107.86H221.579L223.609 97.1711H209.687L196.096 107.86ZM230.003 79.1202L221.579 128.672H233.401L241.966 79.1202H230.003ZM197.724 79.1202L189.3 128.672H201.121L209.687 79.1202H197.724Z" fill="#49AC30"/>
<path d="M252.561 119.045H271.722L270.063 109.984H254.897L252.561 119.045ZM269.338 97.3127L273.09 113.382L273.75 116.001L275.921 128.672H288.875L272.594 75.6516L237.979 128.672H251.782L259.852 116.001L259.781 113.311L269.338 97.3127Z" fill="#49AC30"/>
<path d="M290.615 89.8092H303.923L297.269 128.672H309.161L315.816 89.8092H328.982L330.893 79.1202H292.526L290.615 89.8092Z" fill="#49AC30"/>
<path d="M3.50253 219L128.672 151.715H327.947" stroke="#4BB82F" stroke-width="8"/>
</g>
<defs>
<clipPath id="clip0_202_2">
<rect width="345" height="219" fill="white"/>
</clipPath>
</defs>
</svg>
