<svg width="140" height="140" viewBox="0 0 140 140" fill="none" xmlns="http://www.w3.org/2000/svg">
<g clip-path="url(#clip0_467_208)">
<path d="M129.395 112.707C130.072 111.106 130.447 109.348 130.447 107.503C130.447 103.892 129.009 100.612 126.678 98.1983C129.009 95.7852 130.447 92.5049 130.447 88.8932C130.447 85.2815 129.009 82.0012 126.678 79.5881C129.009 77.1749 130.447 73.8946 130.447 70.2829C130.447 66.6712 129.009 63.391 126.678 60.9778C129.009 58.5646 130.447 55.2844 130.447 51.6727C130.447 44.28 124.432 38.2658 117.04 38.2658H100.607C101.076 36.9612 101.333 35.5568 101.333 34.0928C101.333 28.3392 97.3868 23.4904 92.0587 22.11C90.6748 11.1694 81.3098 2.68188 69.9997 2.68188C58.6897 2.68188 49.3247 11.1697 47.9408 22.11C42.6129 23.4901 38.6665 28.3392 38.6665 34.0928C38.6665 35.5568 38.9236 36.9612 39.3922 38.2658H22.9603C15.5676 38.2658 9.55342 44.2803 9.55342 51.6727C9.55342 55.2844 10.9915 58.5646 13.3221 60.9778C10.9915 63.391 9.55342 66.6712 9.55342 70.2829C9.55342 73.8946 10.9915 77.1749 13.3221 79.5881C10.9915 82.0012 9.55342 85.2815 9.55342 88.8932C9.55342 92.5049 10.9915 95.7852 13.3221 98.1983C10.9915 100.612 9.55342 103.892 9.55342 107.503C9.55342 109.348 9.92804 111.106 10.6046 112.707H0V119.278C0 129.225 8.09294 137.318 18.0407 137.318H121.96C131.907 137.318 140 129.225 140 119.278V112.707H129.395ZM17.7568 88.8932C17.7568 86.0239 20.0913 83.6898 22.9603 83.6898H57.6943V89.9946C57.6943 91.4327 57.9445 92.8131 58.4001 94.0969H22.9603C20.091 94.0966 17.7568 91.7622 17.7568 88.8932ZM57.6943 65.0792V75.4864H22.9603C20.091 75.4864 17.7568 73.1519 17.7568 70.2829C17.7568 67.4139 20.0913 65.0795 22.9603 65.0795L57.6943 65.0792ZM74.1023 56.8758V89.9944C74.1023 92.2563 72.262 94.0966 70 94.0966C67.738 94.0966 65.8977 92.2563 65.8977 89.9944V56.8758H46.5579C40.5727 56.8758 35.6359 52.3038 35.0548 46.469H104.945C104.364 52.3038 99.4273 56.8758 93.4421 56.8758H74.1023ZM117.04 65.0792C119.909 65.0792 122.243 67.4137 122.243 70.2827C122.243 73.1517 119.909 75.4861 117.04 75.4861H82.3057V65.079H117.04V65.0792ZM82.3057 89.9944V83.6895H117.04C119.909 83.6895 122.243 86.0239 122.243 88.8929C122.243 91.7619 119.909 94.0963 117.04 94.0963H81.5999C82.0552 92.8128 82.3057 91.4324 82.3057 89.9944ZM122.243 51.6724C122.243 54.5417 119.909 56.8758 117.04 56.8758H109.458C111.601 53.9147 112.946 50.3407 113.17 46.469H117.04C119.909 46.469 122.243 48.8031 122.243 51.6724ZM46.8702 34.0925C46.8702 31.7914 48.7422 29.9197 51.0433 29.9197H55.9681V24.9167C55.9681 17.1795 62.2628 10.885 69.9997 10.885C77.7366 10.885 84.0314 17.1798 84.0314 24.9167V29.9194H88.9562C91.2572 29.9194 93.1293 31.7914 93.1293 34.0922C93.1293 36.3933 91.2572 38.2653 88.9562 38.2653H51.0433C48.7422 38.2656 46.8702 36.3935 46.8702 34.0925ZM22.9603 46.469H26.8298C27.054 50.3407 28.3986 53.9147 30.5421 56.8758H22.9603C20.091 56.8758 17.7568 54.5417 17.7568 51.6724C17.7568 48.8031 20.091 46.469 22.9603 46.469ZM17.7568 107.503C17.7568 104.634 20.0913 102.3 22.9603 102.3H117.04C119.909 102.3 122.243 104.634 122.243 107.503C122.243 110.372 119.909 112.707 117.04 112.707H22.9603C20.091 112.707 17.7568 110.373 17.7568 107.503ZM131.661 120.91C130.881 125.56 126.827 129.115 121.959 129.115H18.0407C13.1728 129.115 9.11919 125.56 8.33904 120.91H131.661Z" fill="#4BB82F" fill-opacity="0.55"/>
</g>
<defs>
<clipPath id="clip0_467_208">
<rect width="140" height="140" fill="white"/>
</clipPath>
</defs>
</svg>
