<svg width="140" height="140" viewBox="0 0 140 140" fill="none" xmlns="http://www.w3.org/2000/svg">
<g clip-path="url(#clip0_467_214)">
<path d="M123.776 24.7584C110.539 14.4301 90.95 8.5061 70.0334 8.5061C48.6971 8.5061 23.6811 15.1181 9.47824 30.9023C2.76453 38.3636 -0.519455 46.894 0.066795 55.6437C0.0252325 55.8712 0.066795 78.426 0.066795 78.426C-0.0187909 79.2488 0.654412 84.0892 0.743279 84.4854C3.63433 97.3703 15.4802 107.537 30.0938 106.866C39.4161 106.439 48.9227 110.18 55.5314 116.87C64.5609 126.011 76.6006 131.201 89.4325 131.482C115.538 132.055 138.507 111.024 139.927 85.0019C139.975 84.7511 140 84.4927 140 84.2286V58.4965C140 44.3466 133.57 32.3993 123.776 24.7584ZM89.6121 123.285C78.9212 123.05 68.8891 118.725 61.3644 111.108C53.1506 102.793 41.3239 98.1449 29.7189 98.6754C18.246 99.1996 9.43394 90.42 8.39078 80.5541C8.31887 79.8736 8.18406 78.5868 8.02656 77.9305L8.07605 73.4746C13.74 79.3841 21.5442 82.6596 30.0935 82.2686C39.4158 81.8415 48.9224 85.5824 55.5311 92.2726C64.5606 101.414 76.6003 106.603 89.4322 106.885C106.66 107.263 122.46 98.2806 131.737 84.5534C130.56 106.075 111.392 123.767 89.6121 123.285ZM131.794 58.4257C131.402 80.9099 111.692 99.178 89.6121 98.6874C78.9212 98.4528 68.8891 94.1284 61.3644 86.5104C53.1459 78.1908 41.3146 73.5479 29.7192 74.0781C18.2151 74.6033 9.43094 65.7915 8.39105 55.9568C7.67355 49.1731 10.1572 42.4058 15.5729 36.3869C26.4967 24.2468 47.3644 16.7054 70.0332 16.7054C89.1579 16.7054 106.908 21.9967 118.733 31.2227C126.968 37.6477 131.973 48.0714 131.794 58.4257Z" fill="#4BB82F" fill-opacity="0.55"/>
<path d="M113.688 37.687C103.434 29.6829 87.1148 24.9043 70.0332 24.9043C49.8814 24.9043 30.9064 31.5218 21.6941 41.762C17.8014 46.0842 16.0686 50.5691 16.5441 55.0962C17.1588 60.8742 22.2538 66.0848 29.332 65.8838C44.7678 65.4384 57.9196 71.3567 67.1971 80.7484C77.5412 91.2186 90.0928 90.4292 90.4155 90.4978C90.4341 90.4981 90.4527 90.4981 90.4712 90.4981C107.957 90.4981 122.604 75.8635 123.32 58.3818C123.322 58.3495 123.323 58.3173 123.323 58.2847C123.462 50.3211 119.769 42.4281 113.688 37.687ZM90.4972 82.2988C90.3086 82.2589 80.7191 82.7686 73.0298 74.9857C53.4787 55.1952 29.7233 57.9864 27.7187 57.5935C26.2949 57.3143 24.855 55.7109 24.6978 54.234C24.4755 52.1214 25.5151 49.7712 27.7882 47.2474C35.3993 38.7875 52.3762 33.1036 70.0332 33.1036C85.3479 33.1036 99.7812 37.233 108.644 44.1516C112.725 47.3327 115.205 52.6719 115.126 58.0955C114.561 71.2109 103.297 82.2841 90.4972 82.2988Z" fill="#4BB82F" fill-opacity="0.55"/>
<path d="M90.5314 49.502C81.3359 49.502 74.1331 54.9043 74.1331 61.8006C74.1331 68.697 81.3359 74.0993 90.5314 74.0993C99.7268 74.0993 106.93 68.697 106.93 61.8006C106.93 54.9043 99.7268 49.502 90.5314 49.502ZM90.5314 65.9005C85.5264 65.9005 82.3321 63.4724 82.3321 61.8009C82.3321 60.1294 85.5261 57.7013 90.5314 57.7013C95.5364 57.7013 98.7307 60.1294 98.7307 61.8009C98.7307 63.4724 95.5364 65.9005 90.5314 65.9005Z" fill="#4BB82F" fill-opacity="0.55"/>
</g>
<defs>
<clipPath id="clip0_467_214">
<rect width="140" height="140" fill="white"/>
</clipPath>
</defs>
</svg>
