<svg width="140" height="140" viewBox="0 0 140 140" fill="none" xmlns="http://www.w3.org/2000/svg">
<path d="M86.9399 65.4346H53.0569V74.5649H86.9399V65.4346Z" fill="#4BB82F" fill-opacity="0.55"/>
<path d="M140 70.0001C140 63.3911 134.771 60.7434 131.648 59.1613C131.063 58.8649 130.282 58.4695 129.725 58.1255C129.94 57.9568 130.169 57.7845 130.357 57.6432C132.557 55.9881 137.135 52.5438 135.221 45.5397C133.4 38.8889 127.904 37.907 124.952 37.3795C122.817 36.9981 122.425 36.8286 122.264 36.4807C122.256 36.4643 122.25 36.4504 122.245 36.4384C122.369 36.014 123.058 35.0611 123.521 34.4201C125.23 32.0546 128.787 27.1325 124.619 21.1784C122.91 18.7382 119.215 16.1127 111.306 17.4678C99.0935 19.5602 80.0584 31.0566 73.5191 47.6996H66.4809C59.9416 31.0566 40.9065 19.5602 28.694 17.4678C20.7859 16.1132 17.0901 18.7379 15.3811 21.1786C11.2129 27.1325 14.7697 32.0549 16.479 34.4201C16.9419 35.0611 17.6307 36.014 17.7548 36.4384C17.7499 36.4501 17.7442 36.4641 17.7365 36.4805C17.5749 36.8286 17.1831 36.9981 15.0481 37.3795C12.0958 37.907 6.59996 38.8889 4.77859 45.5416C2.8648 52.5436 7.44297 55.9878 9.64277 57.6429C9.83117 57.7848 10.0598 57.9568 10.275 58.1252C9.7177 58.4692 8.93703 58.8646 8.35215 59.161C5.22867 60.7431 0 63.3911 0 70.0001C0 76.6091 5.2284 79.2568 8.35215 80.8391C8.9373 81.1356 9.71797 81.5307 10.275 81.8747C10.06 82.0436 9.83117 82.2156 9.64277 82.357C7.4427 84.0121 2.86453 87.4563 4.77941 94.4607C6.60023 101.112 12.0963 102.093 15.0486 102.621C17.1834 103.002 17.5749 103.172 17.7362 103.519C17.7436 103.536 17.7499 103.55 17.7548 103.562C17.6307 103.986 16.9419 104.939 16.479 105.58C14.7697 107.946 11.2126 112.868 15.3814 118.822C16.7675 120.801 19.4611 122.903 24.6493 122.903C25.8573 122.903 27.2007 122.789 28.6937 122.533C40.9062 120.441 59.9413 108.944 66.4806 92.3008H73.5186C80.0579 108.944 99.0929 120.441 111.305 122.533C119.215 123.887 122.909 121.263 124.618 118.822C128.787 112.868 125.23 107.946 123.52 105.581C123.058 104.94 122.369 103.986 122.244 103.562C122.25 103.551 122.255 103.536 122.263 103.52C122.425 103.172 122.816 103.003 124.951 102.621C127.903 102.094 133.399 101.112 135.221 94.4591C137.135 87.4569 132.556 84.0127 130.357 82.3575C130.168 82.2156 129.939 82.0436 129.724 81.8752C130.281 81.5312 131.062 81.1358 131.647 80.8397C134.772 79.2568 140 76.6085 140 70.0001ZM127.522 72.6934C124.87 74.0366 120.863 76.0663 120.197 80.686C119.485 85.6032 122.986 88.2378 124.868 89.6534C126.694 91.0272 126.694 91.0272 126.414 92.0495C126.15 93.0137 126.116 93.1378 123.345 93.6327C120.67 94.1104 116.192 94.9105 113.981 99.6776C111.639 104.726 114.444 108.608 116.12 110.928C116.583 111.569 117.352 112.632 117.435 113.047C117.42 113.098 117.367 113.241 117.205 113.487C116.632 113.788 113.792 114.31 107.923 112.179C97.0971 108.247 84.44 98.1677 81.1945 86.5105L80.2646 83.1694H59.7349L58.8049 86.5105C55.5598 98.1677 42.9023 108.247 32.0767 112.179C26.2073 114.31 23.3674 113.789 22.794 113.487C22.6327 113.241 22.5796 113.098 22.5643 113.047C22.6475 112.632 23.4161 111.569 23.879 110.928C25.5552 108.608 28.3607 104.726 26.0187 99.6771C23.8074 94.9108 19.3293 94.1107 16.654 93.633C13.8832 93.1381 13.8493 93.0139 13.5863 92.052C13.306 91.0274 13.306 91.0274 15.132 89.6537C17.0136 88.2384 20.5155 85.6038 19.8037 80.6888C19.1368 76.0666 15.1293 74.0368 12.4775 72.6937C9.56977 71.2207 9.13062 70.7734 9.13062 69.9998C9.13062 69.2263 9.56977 68.7792 12.4778 67.3064C15.1296 65.9633 19.1371 63.9336 19.8034 59.3141C20.5155 54.3969 17.0138 51.7623 15.1323 50.3468C13.3066 48.9733 13.3066 48.9733 13.586 47.9509C13.8499 46.9865 13.8841 46.8626 16.6548 46.3674C19.3301 45.8892 23.8079 45.0891 26.0195 40.3225C28.3609 35.2743 25.556 31.3921 23.8796 29.0725C23.4166 28.4316 22.648 27.3679 22.5649 26.9531C22.5805 26.902 22.633 26.7587 22.7946 26.5131C23.368 26.211 26.2101 25.6898 32.0778 27.8213C42.9034 31.753 55.5603 41.8325 58.8052 53.4891L59.7352 56.8302H80.2648L81.1948 53.4891C84.4397 41.8325 97.0966 31.7533 107.922 27.8213C113.79 25.6901 116.632 26.211 117.205 26.5131C117.367 26.7587 117.42 26.9017 117.435 26.9531C117.352 27.3679 116.583 28.4313 116.12 29.0725C114.444 31.3918 111.639 35.2741 113.981 40.3231C116.192 45.0891 120.67 45.8892 123.345 46.3674C126.116 46.8623 126.15 46.9865 126.414 47.9487C126.693 48.9727 126.693 48.9727 124.868 50.3465C122.986 51.7621 119.484 54.3966 120.196 59.3114C120.863 63.9336 124.87 65.9633 127.522 67.3064C130.43 68.7789 130.869 69.2263 130.869 69.9998C130.869 70.7734 130.431 71.2207 127.522 72.6934Z" fill="#4BB82F" fill-opacity="0.55"/>
</svg>
