<svg width="141" height="141" viewBox="0 0 141 141" fill="none" xmlns="http://www.w3.org/2000/svg">
<g clip-path="url(#clip0_467_228)">
<path d="M134.555 115.253C132.748 109.467 129.559 104.204 125.263 99.9146L34.7866 9.76546C33.4562 8.44116 31.2996 8.44116 29.9704 9.76546L29.4649 10.2692L22.3151 3.05382C20.3953 1.11575 17.7756 0.0234375 15.0416 0.0234375C12.3075 0.0234375 9.68786 1.11575 7.76804 3.05382L3.57316 7.29051C-0.356968 11.2806 -0.33435 17.6768 3.62238 21.6404L10.8121 28.8041L8.16717 31.4103C4.94351 34.5865 3.12347 38.912 3.11149 43.4284C3.09819 47.9448 4.89295 52.2796 8.09799 55.4743L35.3574 82.6337C36.6878 83.9594 38.8445 83.9594 40.1749 82.6337C41.504 81.3094 41.504 79.1606 40.1736 77.835L12.9155 50.6742C9.01466 46.7888 8.91488 40.5186 12.6893 36.5126L53.4647 77.1404L60.9112 84.5612L65.73 89.36L100.792 124.295C105.096 128.577 110.38 131.753 116.187 133.555L136.632 139.872C137.839 140.244 139.154 139.921 140.048 139.03C140.943 138.139 141.267 136.828 140.893 135.624L134.555 115.253ZM8.42261 12.0575L12.6162 7.82076C13.2561 7.17386 14.1302 6.81064 15.0416 6.81064C15.9529 6.81064 16.827 7.17386 17.467 7.82076L24.6473 15.068L15.6562 24.0292L8.43858 16.8403C7.12011 15.52 7.11213 13.3871 8.42261 12.0575ZM17.5428 31.7483L32.3785 16.9649L68.5253 52.9808L53.6882 67.7642L17.5428 31.7483ZM58.5057 72.563L73.3415 57.7796L80.5671 64.9791L65.73 79.7624L58.5057 72.563ZM70.5476 84.5612L85.3847 69.7778L120.446 104.713C120.8 105.067 121.144 105.431 121.48 105.802L106.701 120.527C106.33 120.191 105.964 119.848 105.611 119.497L70.5476 84.5612ZM118.205 127.071C116.155 126.436 114.178 125.589 112.305 124.542L125.509 111.385C126.56 113.25 127.412 115.222 128.049 117.264L132.473 131.479L118.205 127.071Z" fill="#4BB82F" fill-opacity="0.55"/>
</g>
<defs>
<clipPath id="clip0_467_228">
<rect width="140.324" height="140" fill="white" transform="translate(0.547852 0.0234375)"/>
</clipPath>
</defs>
</svg>
